# xmcd
#
# Track frame offsets:
#	150
#	13565
#	29152
#	43571
#	60730
#	74601
#	90360
#	102364
#	122742
#	133140
#	149106
#	170372
#	185037
#	195536
#	208984
#	224545
#
# Disc length: 3184 seconds
#
# Revision: 1
# Processed by: cddbd v1.5.2PL0 Copyright (c) Steve Scherf et al.
# Submitted via: audiograbber 1.83.01
#
DISCID=020c6e10
DTITLE=Strait, George - CB5133-03
DYEAR=2009
DGENRE=Karaoke
TTITLE0=Home Improvement
TTITLE1=Take Me Back to Tulsa
TTITLE2=It Just Comes Natural
TTITLE3=House Of Cash
TTITLE4=Lovesick Blues
TTITLE5=Tell Me Something Bad About Tulsa
TTITLE6=One Of You
TTITLE7=You'll Be There
TTITLE8=Merry Christmas Strait To you
TTITLE9=Christmas Cookies
TTITLE10=There's A New Kid In Town
TTITLE11=When It's Christmas Time In Tulsa
TTITLE12=Santa's On His Way
TTITLE13=What  Merry Christmas This Could Be
TTITLE14=Old Time Christmas
TTITLE15=Merry Christmas Wherever You Are
EXTD=
EXTT0=
EXTT1=
EXTT2=
EXTT3=
EXTT4=
EXTT5=
EXTT6=
EXTT7=
EXTT8=
EXTT9=
EXTT10=
EXTT11=
EXTT12=
EXTT13=
EXTT14=
EXTT15=
PLAYORDER=
